<?xml version="1.0" encoding="UTF-8"?>
<svg width="70" height="70" version="1.1" viewBox="0 0 70 70" xmlns="http://www.w3.org/2000/svg">
 <g transform="scale(.53846)">
  <rect x="2.6458" y="2.6458" width="124.71" height="124.71" ry="12.654" fill="#ebe6e0" stroke="#74665e" stroke-width="5.2917"/>
  <g stroke-width="0">
   <path d="m55.6 29.9h17.1v70.2h-17.1v-28.9h-26.6v28.9h-17.1v-70.2h17.1v27.5h26.6z" fill="#bd4128"/>
   <path d="m98.5 29.9h18.5l-2 47.9h-14.5zm9.5 70.2q-4.5 0-7.35-2.65-2.85-2.65-2.85-6.55 0-4 2.85-6.7 2.85-2.7 7.35-2.7 4.4 0 7.25 2.7t2.85 6.7q0 3.9-2.85 6.55-2.85 2.65-7.25 2.65z" fill="#74665e"/>
   <path d="m76.5 100.1h18.5l-2-47.9h-14.5zm9.5-70.2q-4.5 0-7.35 2.65t-2.85 6.55q0 4 2.85 6.7t7.35 2.7q4.4 0 7.25-2.7t2.85-6.7q0-3.9-2.85-6.55t-7.25-2.65z" fill="#74665e"/>
  </g>
 </g>
</svg>
