<svg id="svg1" width="400" height="50" version="1.1" viewBox="0 0 105.83333 13.229167"
  xmlns="http://www.w3.org/2000/svg">
  <g id="layer1" transform="translate(-8.9675216,-49.045068)">
    <g id="g21" transform="translate(3.3266375,2.3360328)" stroke-width="1.67852">
      <g fill="#2a2522">
        <path id="path16"
          d="m101.2049 56.191c0.98214 0.880534 1.98685 1.411112 3.70276 1.411112 1.9304 0 3.23992-0.857956 3.23992-2.641602 0-2.05458-1.71592-2.314225-2.90125-2.528714-0.98214-0.180622-1.8288-0.248356-1.8288-0.835379 0-0.417689 0.63218-0.620889 1.1176-0.620889 0.82409 0 1.61431 0.327378 2.25778 0.857956l1.08373-1.478846c-0.8128-0.745067-1.89653-1.275645-3.28507-1.275645-1.43369 0-3.26249 0.541867-3.26249 2.573869 0 2.088446 2.20134 2.393247 3.22863 2.56258 0.80151 0.146756 1.51271 0.225778 1.51271 0.812801 0 0.428978-0.45156 0.699912-1.15147 0.699912-1.08373 0-2.00942-0.508001-2.60774-0.993423z" />
        <path id="path15" d="m101.01334 49.191882h-6.558852v1.84009h2.235202v6.423385h2.088447v-6.423385h2.235203z" />
        <path id="path14"
          d="m91.418128 49.191882v3.318936h-3.262492v-3.318936h-2.065869v8.263475h2.065869v-3.127026h3.262492v3.127026h2.077158v-8.263475z" />
        <path id="path13"
          d="m80.106994 52.714018v1.636891h2.483558c-0.07902 0.745067-0.993423 1.365957-1.952979 1.365957-1.253068 0-2.25778-0.92569-2.25778-2.381958 0-1.411113 1.004712-2.381958 2.25778-2.381958 0.982134 0 1.625601 0.485423 2.111024 1.174046l1.569157-1.049868c-0.722489-1.185335-2.009424-2.020713-3.680181-2.020713-2.381958 0-4.334938 1.930402-4.334938 4.278493s1.95298 4.267204 4.334938 4.267204c2.336802 0 4.007559-1.546579 4.222048-3.623737 0.05644-0.553156 0.03387-1.151468 0.02258-1.264357z" />
        <path id="path12" d="m75.117664 49.191882h-2.088447v8.263475h2.088447z" />
        <path id="path11" d="m68.006003 55.615266v-6.423384h-2.088446v8.263475h6.208895v-1.840091z" />
        <path id="path10"
          d="m59.968654 52.714018v1.636891h2.483558c-0.07902 0.745067-0.993423 1.365957-1.952979 1.365957-1.253068 0-2.25778-0.92569-2.25778-2.381958 0-1.411113 1.004712-2.381958 2.25778-2.381958 0.982134 0 1.625601 0.485423 2.111024 1.174046l1.569157-1.049868c-0.722489-1.185335-2.009424-2.020713-3.680181-2.020713-2.381958 0-4.334938 1.930402-4.334938 4.278493s1.95298 4.267204 4.334938 4.267204c2.336802 0 4.007559-1.546579 4.222048-3.623737 0.05644-0.553156 0.03387-1.151468 0.02258-1.264357z" />
        <path id="path9" d="m54.97932 49.191882h-2.088446v8.263475h2.088446z" />
        <path id="path8"
          d="m49.01913 49.191882v3.318936h-3.262492v-3.318936h-2.065869v8.263475h2.065869v-3.127026h3.262492v3.127026h2.077158v-8.263475z" />
      </g>
      <g fill="#bd4128">
        <path id="path7"
          d="m38.024036 49.045068c-2.494847 0-4.334619 1.930718-4.334619 4.278809 0 2.35938 1.839772 4.278292 4.334619 4.278292 2.506136 0 4.346504-1.918912 4.346504-4.278292 0-2.348091-1.840368-4.278809-4.346504-4.278809zm0 1.885157c1.253068 0 2.257743 0.971251 2.257743 2.393652 0 1.422402-1.004675 2.404504-2.257743 2.404504s-2.257744-0.959525-2.257744-2.404504c0-1.377246 1.004676-2.393652 2.257744-2.393652z" />
        <path id="path5"
          d="m26.182381 49.191829v8.263579h3.725354c1.490134 0 2.889746-0.564457 2.889746-2.48357 0-1.016002-0.767336-1.727308-1.34307-1.840197 0.541867-0.2032 1.027327-0.767465 1.027327-1.580266 0-1.693335-1.083634-2.359546-2.686657-2.359546zm2.077393 1.840198h1.365808c0.587023 0 0.767395 0.38353 0.767395 0.68833 0 0.327378-0.214159 0.733806-0.756026 0.733806h-1.377177zm0 2.991549h1.591634c0.553156 0 0.869197 0.417598 0.869197 0.790132 0 0.383823-0.316398 0.801502-0.846976 0.801502h-1.613855z" />
        <path id="path2"
          d="m20.538281 49.045068c-2.494847 0-4.335136 1.930718-4.335136 4.278809 0 2.35938 1.840289 4.278292 4.335136 4.278292 2.506136 0 4.345988-1.918912 4.345988-4.278292 0-2.348091-1.839852-4.278809-4.345988-4.278809zm0 1.885157c1.253068 0 2.257744 0.971251 2.257744 2.393652 0 1.422402-1.004676 2.404504-2.257744 2.404504s-2.257743-0.959525-2.257743-2.404504c0-1.377246 1.004675-2.393652 2.257743-2.393652z" />
      </g>
      <g id="g20" transform="translate(1.103e-4,-10.474347)">
        <path id="path17"
          d="m8.9674113 59.666642v8.263062h2.0773927v-2.659786l2.13527-2.741435v-0.01809l0.866097-1.074353 1.426786-1.769401h-2.568318l-1.859835 2.387968v-2.387968z"
          fill="#bd4128" />
        <path id="path20" d="m11.426693 65.253381 2.45153 2.676323h2.799829l-2.54093-2.676323z" fill="#2a2522" />
      </g>
    </g>
  </g>
</svg>